<?xml version="1.0" encoding="UTF-8"?>
<svg id="_타이포" data-name="타이포" xmlns="http://www.w3.org/2000/svg" xmlns:xlink="http://www.w3.org/1999/xlink" version="1.1" viewBox="0 0 1190.55 1683.78">
  <defs>
    <style>
      .cls-1 {
        fill: url(#linear-gradient);
      }

      .cls-1, .cls-2 {
        stroke-width: 0px;
      }

      .cls-2 {
        fill: #fff;
      }
    </style>
    <linearGradient id="linear-gradient" x1="1196.7" y1="-7.41" x2="-5.13" y2="1689.76" gradientUnits="userSpaceOnUse">
      <stop offset=".25" stop-color="#9fd193"/>
      <stop offset=".4" stop-color="#abc8a5"/>
      <stop offset=".69" stop-color="#cdb3d5"/>
      <stop offset=".7" stop-color="#ceb3d6"/>
    </linearGradient>
  </defs>
  <rect class="cls-1" x="-8.5" y="-8.5" width="1207.56" height="1700.79"/>
  <path class="cls-2" d="M141.45,619.96v-175.18h10.45v175.18h-10.45ZM157.4,610.8h31.9c55.82,0,81.12-34.23,81.12-78.42s-25.3-78.42-81.12-78.42h-31.9v-9.16h31.9c59.67,0,92.4,35.04,92.4,87.59s-32.72,87.59-92.4,87.59h-31.9v-9.16Z"/>
  <path class="cls-2" d="M320.45,619.96l65.17-168.71,5.23,14.01-37.12,96.21h74.25l3.57,9.43h-81.4l-18.7,49.05h-11ZM456.84,619.96l-67.65-175.18h11l67.65,175.18h-11Z"/>
  <path class="cls-2" d="M643.81,619.96l-124.85-173.02v-2.16h10.45l124.85,172.48v2.69h-10.45ZM518.97,619.96v-163.05l10.45,14.82v148.23h-10.45ZM643.81,593.28v-148.49h10.45v163.32l-10.45-14.82Z"/>
  <path class="cls-2" d="M732.89,532.37c0-64.41,34.1-88.13,71.77-90.01v9.43c-33.27,1.89-60.5,23.45-60.5,80.58s27.22,78.96,60.5,80.85v9.16c-37.67-1.89-71.77-25.33-71.77-90.01ZM857.46,477.13c-6.05-11.32-20.08-25.33-47.3-25.6v-9.43c29.97,0,51.42,15.36,59.4,35.04h-12.1ZM810.16,613.22c27.22,0,41.25-14.01,47.3-25.6h12.1c-7.98,19.67-29.42,35.04-59.4,35.04v-9.43Z"/>
  <path class="cls-2" d="M946.25,619.96v-175.18h10.45v81.66h88.27v9.16h-88.27v84.35h-10.45ZM962.2,453.95v-9.16h86.9v9.16h-86.9ZM962.2,619.96v-9.16h86.9v9.16h-86.9Z"/>
  <path class="cls-2" d="M133.92,289.91h12.65c6.05,12.94,20.35,22.91,46.47,23.99v9.43c-29.15-1.08-51.97-13.21-59.12-33.42ZM198.54,313.9c28.6-.27,50.6-16.98,50.6-47.43,0-19.13-11.82-31.8-40.42-32.61l-22.55-.54c-35.75-.81-51.42-10.51-51.42-38.54,0-30.45,26.12-50.94,58.3-52.01v9.43c-26.67,1.08-47.3,16.98-47.3,42.58,0,23.72,15.95,28.3,42.62,28.84l22.27.54c34.37.81,49.5,18.06,49.5,42.31,0,35.57-26.67,56.33-61.6,56.86v-9.43ZM243.37,176.18c-6.33-13.21-21.17-23.18-44.82-23.99v-9.43c26.95.81,50.05,13.21,57.47,33.42h-12.65Z"/>
  <path class="cls-2" d="M393.26,320.63v-175.18h10.45v175.18h-10.45ZM409.21,250.02l105.6-104.57h14.58l-120.17,118.58v-14.01ZM507.93,320.63l-41.8-105.11,8.25-8.08,45.1,113.19h-11.55Z"/>
  <path class="cls-2" d="M665.31,320.63v-175.18h10.45v175.18h-10.45ZM681.26,250.02l105.6-104.57h14.57l-120.17,118.58v-14.01ZM779.98,320.63l-41.8-105.11,8.25-8.08,45.1,113.19h-11.55Z"/>
  <path class="cls-2" d="M126.01,809.01c0-48.22,25.53-65.97,53.73-67.38v7.06c-24.91,1.41-45.29,17.55-45.29,60.32s20.38,59.11,45.29,60.52v6.86c-28.2-1.41-53.73-18.96-53.73-67.38ZM219.27,767.65c-4.53-8.47-15.03-18.96-35.41-19.17v-7.06c22.44,0,38.5,11.5,44.47,26.23h-9.06ZM183.86,869.53c20.38,0,30.88-10.49,35.41-19.17h9.06c-5.97,14.73-22.03,26.23-44.47,26.23v-7.06Z"/>
  <path class="cls-2" d="M238.06,809.01c0-47.21,28.41-66.58,55.79-67.59v7.06c-22.85,1.01-47.35,18.16-47.35,60.52s24.5,59.52,47.35,60.52v7.06c-27.38-1.01-55.79-20.38-55.79-67.59ZM297.97,869.53c22.65-1.01,47.35-17.96,47.35-60.52s-24.7-59.52-47.35-60.52v-7.06c27.38,1.01,55.79,20.38,55.79,67.59s-28.41,66.58-55.79,67.59v-7.06Z"/>
  <path class="cls-2" d="M467.66,874.57l-93.46-129.52v-1.61h7.82l93.46,129.12v2.02h-7.82ZM374.19,874.57v-122.06l7.82,11.1v110.96h-7.82ZM467.66,854.6v-111.16h7.82v122.26l-7.82-11.1Z"/>
  <path class="cls-2" d="M495.92,809.01c0-48.22,25.53-65.97,53.73-67.38v7.06c-24.91,1.41-45.29,17.55-45.29,60.32s20.38,59.11,45.29,60.52v6.86c-28.2-1.41-53.73-18.96-53.73-67.38ZM589.17,767.65c-4.53-8.47-15.03-18.96-35.41-19.17v-7.06c22.44,0,38.5,11.5,44.47,26.23h-9.06ZM553.76,869.53c20.38,0,30.88-10.49,35.41-19.17h9.06c-5.97,14.73-22.03,26.23-44.47,26.23v-7.06Z"/>
  <path class="cls-2" d="M607.97,809.01c0-47.21,28.41-66.58,55.79-67.59v7.06c-22.85,1.01-47.35,18.16-47.35,60.52s24.5,59.52,47.35,60.52v7.06c-27.38-1.01-55.79-20.38-55.79-67.59ZM667.87,869.53c22.65-1.01,47.35-17.96,47.35-60.52s-24.7-59.52-47.35-60.52v-7.06c27.38,1.01,55.79,20.38,55.79,67.59s-28.41,66.58-55.79,67.59v-7.06Z"/>
  <path class="cls-2" d="M740.39,819.5v-76.06h7.82v76.06c0,38.13,19.97,49.43,38.91,50.03v7.06c-23.26-.81-46.73-13.92-46.73-57.09ZM791.24,869.53c18.73-.61,38.91-11.9,38.91-50.03v-76.06h7.82v76.06c0,43.17-23.47,56.29-46.73,57.09v-7.06Z"/>
  <path class="cls-2" d="M863.97,874.57v-131.14h7.82v131.14h-7.82ZM875.91,809.81h40.55c19.15,0,34.17-8.27,34.17-29.66s-15.03-29.66-34.17-29.66h-40.55v-7.06h40.55c24.29,0,42.61,11.7,42.61,36.72s-18.32,36.72-42.61,36.72h-40.55v-7.06ZM941.79,874.57l-20.38-53.66c2.26,0,5.35-.4,8.03-.81l20.79,54.47h-8.44Z"/>
  <path class="cls-2" d="M970.05,851.57h9.47c4.53,9.68,15.23,17.15,34.79,17.96v7.06c-21.82-.81-38.91-9.89-44.26-25.02ZM1018.43,869.53c21.41-.2,37.88-12.71,37.88-35.51,0-14.32-8.85-23.81-30.26-24.41l-16.88-.4c-26.76-.61-38.5-7.87-38.5-28.85,0-22.8,19.56-38.13,43.64-38.94v7.06c-19.97.81-35.41,12.71-35.41,31.88,0,17.75,11.94,21.18,31.91,21.59l16.67.4c25.73.61,37.06,13.52,37.06,31.67,0,26.63-19.97,42.17-46.11,42.57v-7.06ZM1051.98,766.44c-4.73-9.89-15.85-17.35-33.56-17.96v-7.06c20.17.61,37.47,9.89,43.03,25.02h-9.47Z"/>
  <path class="cls-2" d="M1022.18,543.62l-2.97-.42c15.54-109.92,9.74-212.8-17.22-305.76-22.7-78.27-60.62-150.43-112.72-214.47-69.12-84.97-151.13-140.46-207.75-172.05-61.41-34.26-109.06-49.6-112.84-49.85v-3h.01c3.01,0,46.94,13.65,106.2,45.78,53.72,29.13,132.19,80.28,200.92,158.54,57.23,65.18,99.22,139.22,124.78,220.07,30.72,97.15,37.98,205.2,21.59,321.16Z"/>
  <path class="cls-2" d="M1012,1063.51l-1.38-2.66c37.9-19.71,69.28-50.25,93.28-90.77,21.5-36.31,36.73-79.87,45.27-129.47,10.96-63.7,10.13-134.89-2.35-200.47-11.85-62.25-33.38-113.76-59.06-141.31l2.2-2.05c26.06,27.96,47.87,80.01,59.82,142.8,12.55,65.92,13.38,137.5,2.36,201.54-8.6,49.96-23.96,93.87-45.64,130.49-24.28,41.01-56.07,71.93-94.47,91.9Z"/>
  <path class="cls-2" d="M870.89,1707c-4.28,0-8.91-.83-13.48-3.29-9.57-5.15-16.98-16.43-22.02-33.51-6.96-23.55-11.88-61.04-12.25-93.29-.26-22.77,1.58-62.87,16.83-75.58,23.55-19.63-2.25-94.08-2.51-94.83l-.04-.13c-.07-.25-6.46-25.72-5.69-58.27.71-30.11,7.85-72.65,37.87-104.27,15.16-15.97,31.3-30.29,46.91-44.12,43.36-38.44,84.31-74.75,93.3-137.75l2.97.42c-9.16,64.08-50.51,100.75-94.29,139.57-15.56,13.8-31.65,28.06-46.72,43.94-16.2,17.06-35.77,48.64-37.05,102.2-.75,31.38,5.24,56.08,5.58,57.47,1.39,3.99,26.56,77.24,1.57,98.06-10.6,8.83-16.19,34.84-15.75,73.24.37,32,5.24,69.17,12.13,92.48,4.81,16.28,11.73,26.95,20.57,31.71,9.82,5.29,19.89,2.22,25.91.39l.91-.28.86,2.87-.9.27c-3.51,1.07-8.79,2.67-14.73,2.67Z"/>
  <path class="cls-2" d="M894.72,1488.52l-2.89-.82c17.23-60.79,10.11-425.52,3.41-510.24-2.78-35.14,3.36-70.67,18.24-105.6,13.22-31.03,32.95-60.87,58.64-88.67,55.11-59.63,133.13-102.92,185.53-102.92v3c-24.08,0-55.34,9.76-88.03,27.49-34.72,18.82-67.67,44.57-95.29,74.46-25.46,27.55-45,57.09-58.08,87.81-14.69,34.48-20.75,69.53-18.01,104.18,6.7,84.84,13.78,450.24-3.52,511.29Z"/>
  <path class="cls-2" d="M1012.79,1062.39l-2.97-.43c12.2-85.09,10.04-160.6-6.4-224.43-13.14-51-35.38-94.69-66.11-129.87-27.34-31.29-56.48-49.92-76.11-60.04-21.29-10.97-36.3-14.58-36.45-14.62l.69-2.92c.6.14,61.04,14.92,114,75.46,31.08,35.53,53.57,79.63,66.85,131.1,16.58,64.24,18.76,140.19,6.5,225.74Z"/>
  <path class="cls-2" d="M745.33,429.59c-43.38-13.67-69.49-43.06-71.64-80.65-1.01-17.69,3.61-36.19,13.01-52.11,9.47-16.04,23.43-28.77,39.29-35.84,15.79-7.04,33.34-8.49,50.76-4.19,19.75,4.87,39.18,16.84,57.76,35.56l-2.13,2.11c-18.19-18.32-37.15-30.02-56.35-34.76-16.76-4.14-33.64-2.75-48.82,4.02-31.3,13.95-52.55,49.72-50.53,85.04,2.07,36.27,27.42,64.68,69.55,77.96l-.9,2.86Z"/>
  <path class="cls-2" d="M192.4,740.99l-2.72-1.26c.34-.73,8.55-18.12,30.88-38.79,20.54-19.01,57.42-44.37,116.42-57.18,14.78-3.21,37.25-6.37,65.69-10.38,68.66-9.67,172.41-24.28,270.44-55.04,53.77-16.88,100.39-36.98,138.56-59.75,44.72-26.68,79.25-57.83,102.65-92.61,38.84-57.72,48.36-127.4,28.32-207.1-.29-1-30.6-105.67-108.74-213.25-45.86-63.15-98.99-114.93-157.91-153.91-73.61-48.71-156.54-77.46-246.47-85.45l.27-2.99c90.45,8.04,173.86,36.96,247.9,85.97,59.22,39.19,112.61,91.24,158.69,154.69,78.43,108.01,108.86,213.11,109.15,214.16,20.27,80.6,10.6,151.09-28.73,209.55-23.65,35.15-58.51,66.61-103.61,93.52-38.37,22.89-85.2,43.09-139.2,60.03-98.27,30.84-202.17,45.47-270.92,55.15-28.38,4-50.8,7.15-65.48,10.34-32.15,6.98-78.18,22.42-114.89,56.33-21.95,20.28-30.24,37.79-30.32,37.97Z"/>
  <path class="cls-2" d="M450.7,1289.12c-.96,0-1.93-.28-2.78-.83-1.67-1.08-2.56-2.97-2.31-4.95l2.37-18.89c1.08-8.61,4.53-16.73,9.96-23.49,3.5-4.36,8.28-7.96,13.8-10.42l16.4-7.31,1.22,2.74-16.4,7.31c-5.09,2.27-9.48,5.58-12.68,9.56-5.09,6.33-8.31,13.93-9.32,21.98l-2.37,18.89c-.1.83.25,1.6.96,2.05.71.46,1.56.47,2.28.02,86.78-53.33,143.17-87.06,194.39-105.91,47.7-17.55,92.61-23.57,171.57-22.99,76.5.55,124.65-25.39,151.59-47.26,29.2-23.7,40.47-47.85,40.58-48.09l2.73,1.25c-3.89,8.53-17.53,29.75-41.28,49.07-27.04,21.99-75.15,48.05-151.17,48.05-.82,0-1.63,0-2.46,0-78.59-.58-123.19,5.39-170.51,22.8-50.95,18.75-107.23,52.42-193.85,105.65-.83.51-1.76.77-2.69.77Z"/>
  <path class="cls-2" d="M904.53,1147.33l-2.29-1.93c155.58-184.95,211.66-349.45,166.67-488.94-16.81-52.12-47.97-100.83-92.6-144.77-35.75-35.19-80.18-67.42-132.05-95.79-88.39-48.34-168.8-68.96-169.6-69.16l.73-2.91c.8.2,81.53,20.89,170.24,69.4,52.13,28.5,96.79,60.9,132.75,96.29,45,44.29,76.42,93.41,93.38,146.01,45.33,140.54-10.93,306.01-167.22,491.81Z"/>
  <path class="cls-2" d="M188.51,744.23l-2.45-1.74c27.54-38.76,60.71-62.15,104.4-73.62,39.96-10.49,85.26-10.5,137.72-10.51,33.96,0,72.45-.02,113.5-3.1,77.15-5.93,166.82-58.64,228.45-101.82,66.88-46.84,116.08-92.88,116.57-93.34l2.05,2.19c-.49.46-49.83,46.62-116.87,93.59-39.39,27.6-77.11,50.07-112.1,66.81-43.81,20.95-83.47,32.92-117.88,35.57-41.16,3.1-79.71,3.1-113.72,3.11-104.98.02-180.83.04-239.68,82.86Z"/>
  <path class="cls-2" d="M894.09,1556.7c-78.88-115.41-46.08-236.27-24.37-316.25,1.84-6.78,3.58-13.18,5.19-19.34,23.46-89.85,23.74-176.07,23.74-176.93h3c0,.86-.27,87.46-23.83,177.69-1.61,6.17-3.35,12.58-5.19,19.37-10.91,40.18-24.48,90.19-25.51,144.32-1.21,63.55,14.97,118.98,49.46,169.45l-2.48,1.69Z"/>
  <path class="cls-2" d="M226.19,779.49l-2.66-1.38c28.27-54.31,55.81-94.99,98.33-116.97,58.42-29,132.76-48.42,215.02-56.17,82.81-7.8,167.25-3.14,244.18,13.49l-.63,2.93c-76.63-16.57-160.76-21.21-243.27-13.44-81.9,7.72-155.88,27.03-213.95,55.86-41.8,21.61-69.02,61.87-97.02,115.68Z"/>
  <path class="cls-2" d="M502.72,1209.18l-2.47-1.71c.18-.26,18.24-25.66,56.42-21.32,84.49,9.6,105.94-11.97,133.1-39.3,16.05-16.15,34.24-34.45,68.41-49.26l1.19,2.75c-33.64,14.58-51.62,32.67-67.48,48.62-27.73,27.9-49.63,49.93-135.56,40.16-36.42-4.14-53.45,19.8-53.61,20.05Z"/>
  <path class="cls-2" d="M587.09,1209.23l-2.39-1.82c37.16-48.73,80.5-82.04,128.83-99.01,38.68-13.58,80.59-16.77,124.58-9.49,74.8,12.39,130.46,51.39,131.02,51.78l-1.74,2.45c-.55-.39-55.73-39.04-129.88-51.29-43.47-7.18-84.87-4.02-123.05,9.4-47.74,16.78-90.6,49.74-127.38,97.98Z"/>
  <path class="cls-2" d="M1128.91,919.86c-76.75-35.2-128.79-90.04-154.66-162.99-14.24-40.17-20.61-86.1-18.92-136.51,1.35-40.29,7.82-83.52,19.23-128.5,19.42-76.55,46.82-132.4,47.09-132.95l2.69,1.33c-.27.55-27.55,56.16-46.89,132.43-11.35,44.76-17.79,87.77-19.13,127.84-1.67,50.03,4.63,95.57,18.75,135.37,25.59,72.16,77.1,126.41,153.08,161.26l-1.25,2.73Z"/>
  <path class="cls-2" d="M825.27,1131.75l-1.31-2.7c141.5-68.67,256.85-207.29,293.87-353.16,12.96-51.08,15.91-101.04,8.76-148.5-7.66-50.82-26.86-97.96-57.06-140.09-21.11-28.2-33.24-49.98-33.36-50.2l2.62-1.45c.12.21,12.16,21.83,33.16,49.88,30.5,42.54,49.87,90.11,57.6,141.41,7.21,47.85,4.25,98.21-8.82,149.68-37.23,146.69-153.21,286.08-295.47,355.12Z"/>
  <path class="cls-2" d="M772.61,451.44c-4.56,0-11.72-2.77-21.94-8.45-9.2-5.11-12.81-8.89-11.71-12.24.85-2.59,4.4-5.38,22.74-5.19l-31.05-37.67,2.31-1.91,32.69,39.66c1.76.05,3.64.13,5.65.23,14.43.74,28.7,2.56,28.85,2.58l-.38,2.98c-11.54-1.48-22.43-2.38-31.59-2.72l6.79,8.23c1.62,1.97,2.76,4.22,3.29,6.51.92,3.97-.37,5.91-1.61,6.85-1,.76-2.34,1.14-4.03,1.14ZM760.55,428.56c-10.92,0-18.06,1.05-18.74,3.13-.08.26-.51,2.67,10.32,8.68,17,9.44,21.54,8.42,22.71,7.54.96-.73.8-2.46.49-3.78-.43-1.85-1.35-3.67-2.68-5.28l-8.45-10.25c-1.26-.02-2.47-.04-3.65-.04Z"/>
  <path class="cls-2" d="M801.12,629.14l-2.34-1.88c49.6-61.6,66.76-109.36,50.98-141.94-22.16-45.77-103.18-45.59-103.97-45.58l-.03-3c.22,0,21.08-.12,44.48,5.57,31.17,7.58,52.69,22,62.23,41.7,16.33,33.72-.95,82.55-51.34,145.13Z"/>
  <path class="cls-2" d="M907.3,1099.09c-.05-.66-5.23-66.82,12.57-152.59,10.46-50.38,26.68-97.59,48.22-140.32,26.93-53.43,62.29-99.96,105.11-138.3l2,2.24c-42.53,38.08-77.67,84.32-104.43,137.41-21.42,42.49-37.55,89.46-47.96,139.58-17.72,85.35-12.57,151.08-12.52,151.74l-2.99.25Z"/>
  <path class="cls-2" d="M1105.68,692.34c-45.28-31.01-98.42-53.42-157.93-66.63-47.65-10.57-99.47-15.3-154.03-14.05-92.94,2.13-162.5,21.15-163.19,21.34l-.8-2.89c.7-.19,70.54-19.3,163.84-21.44,54.81-1.26,106.88,3.49,154.78,14.11,59.91,13.29,113.41,35.86,159.02,67.1l-1.7,2.48Z"/>
  <path class="cls-2" d="M1005.88,692.34c-45.28-31.01-98.42-53.42-157.93-66.63-47.65-10.57-99.48-15.3-154.03-14.05-92.94,2.13-162.5,21.15-163.19,21.34l-.8-2.89c.69-.19,70.54-19.3,163.84-21.44,54.81-1.26,106.88,3.49,154.78,14.11,59.91,13.29,113.41,35.86,159.02,67.1l-1.7,2.48Z"/>
  <path class="cls-2" d="M872.4,476.06c-44.52-13.38-80.76-31.98-107.72-55.3-21.84-18.89-37.72-40.93-47.19-65.51-15.29-39.68-9.38-74.28-7.21-83.94.04-.19.07-.31.08-.37l1.45.27.85-1.3c.88.58.68,1.43.54,2.06-2.13,9.45-7.91,43.31,7.08,82.2,9.3,24.12,24.89,45.77,46.36,64.32,26.64,23.04,62.51,41.44,106.62,54.7l-.86,2.87Z"/>
  <path class="cls-2" d="M986.84,450.81c-26.89-37.42-59.01-63.55-95.46-77.66-29.15-11.29-61.15-14.98-95.1-10.96-57.9,6.86-101.92,34.09-102.35,34.37l-1.59-2.54c.44-.28,45.03-27.87,103.59-34.8,34.44-4.08,66.92-.33,96.54,11.14,37,14.33,69.58,40.81,96.81,78.71l-2.44,1.75Z"/>
  <path class="cls-2" d="M484.68,1268.47l-2.99-.22c.06-.82,1.67-20.27,18.28-39.09,27.62-31.3,74.66-35.44,109.25-33.4l-.18,2.99c-48.57-2.87-85.46,8.29-106.71,32.25-16.02,18.07-17.64,37.27-17.66,37.46Z"/>
  <path class="cls-2" d="M818.32,1159.8l-1.1-2.79c.24-.09,24.34-9.68,52.15-29.92,25.61-18.64,59.7-50.41,76.67-95.88,19.92-53.38,12.53-113.91-21.99-179.91l2.66-1.39c34.93,66.8,42.38,128.16,22.13,182.38-9.52,25.5-30.74,63.07-77.79,97.29-28.11,20.45-52.5,30.14-52.74,30.23Z"/>
  <path class="cls-2" d="M926.28,247.06v-101.6h10.45v101.6c0,50.94,26.67,66.03,51.97,66.84v9.43c-31.07-1.08-62.42-18.6-62.42-76.27ZM994.21,313.9c25.02-.81,51.97-15.9,51.97-66.84v-101.6h10.45v101.6c0,57.67-31.35,75.19-62.42,76.27v-9.43Z"/>
  <g>
    <path class="cls-2" d="M967.41,265c-.13-4.47-3.44-7.8-7.85-7.88q-3.74-.07-3.84,3.64c0,.36,0,.73,0,1.09,0,.25,0,.49,0,.74,0,3.05,0,6.09,0,9.14.01.73.01,1.46.03,2.19.01.46.21.98.7.88,1.73-.36,3.52.14,5.24-.4,4-1.24,5.86-4.27,5.71-9.4ZM964.99,269.89c-1.44,2.53-4.29,3.94-7.05,3.34-.89-.19-.77-.8-.77-1.38-.01-1.95,0-3.89,0-5.84,0-1.88.05-3.77-.03-5.65-.04-.97.33-1.41,1.21-1.67,3.35-.99,7.71,2.7,7.45,6.18-.12,1.71.1,3.39-.82,5.02Z"/>
    <path class="cls-2" d="M990.73,285.3c0,.17.03.4.03.69v1.9h.47v-1.62c0-.34.01-.67.13-.97.19-.47.59-.75,1.05-.75.5,0,.82.36.84.69,0,.14.04.36.04.63v2.02h.47v-2.2c0-1.05-.49-1.6-1.26-1.6-.54,0-1.03.3-1.36.89-.2-.6-.61-.89-1.17-.89-.53,0-.94.26-1.27.73v-.63h-.47v3.7h.47v-1.57c0-.56.05-1,.31-1.34.21-.27.54-.43.86-.43.49,0,.82.35.84.75Z"/>
    <polygon class="cls-2" points="993.67 293.08 992.95 293.08 990.85 295.05 990.85 293.08 990.32 293.08 990.32 298.35 990.85 298.35 990.85 295.89 993.17 298.35 993.86 298.35 991.13 295.44 993.67 293.08"/>
    <path class="cls-2" d="M985.45,284.09c-1.16,0-1.9.95-1.9,1.96s.7,1.93,1.93,1.93c.81,0,1.39-.37,1.76-1.11l-.4-.21c-.27.45-.64.89-1.42.89s-1.37-.62-1.39-1.47h3.33c-.01-1.23-.86-1.99-1.92-1.99ZM985.45,284.55c.64,0,1.19.34,1.39,1.11h-2.76c.22-.75.71-1.11,1.37-1.11Z"/>
    <path class="cls-2" d="M999.58,273.48c-.02-5.05,0-10.11-.02-15.16,0-.44.15-1.09-.59-1.1-.62,0-.77.5-.78,1.03-.01.43,0,.85,0,1.28,0,3.41,0,6.82-.02,10.23,0,.33.18.79-.24.97-.39.16-.65-.18-.9-.45-.85-.93-1.92-1.63-2.66-2.72-2.35-3.46-5.56-6.19-8.2-9.41-.22-.27-.47-.64-.88-.5-.45.15-.31.6-.32.94-.03,1.22-.04,2.44-.06,3.65,0,.48.02.95.03,1.43,0,.74,0,1.49,0,2.23,0,2.8.01,5.59.02,8.39,1.46.79,1.12-.43,1.12-1.07.03-4.28.01-8.56.01-13.21,1.04,1.25,1.79,2.19,2.58,3.09,3.09,3.48,6.27,6.87,9.11,10.56.14.18.41.26.59.42.89.79,1.21.54,1.21-.58Z"/>
    <path class="cls-2" d="M998.21,202.17c5.88.99,11.88,1.41,17.41,4.03,3.99,1.89,7.64,4.15,10.33,7.73.57.76,1.26,1,2.27.96-1.57-4.22-4.93-6.67-8.29-8.9-5.36-3.56-11.21-6.2-17.55-7.54-2.64-.56-5.34-.87-8.02.03-1.12.37-1.13.7-.42,1.59,1.13,1.41,2.61,1.83,4.27,2.1Z"/>
    <path class="cls-2" d="M993.04,228.08c-.01,7.74,0,15.48,0,23.22,0,.66-.12,1.43.94,1.38,1.07-.05.84-.86.84-1.49.02-2.8,0-5.61.02-8.41,0-.64-.22-1.35.43-1.97.79.53,1.46,1.17,2.11,1.89,2.87,3.14,5.79,6.24,8.7,9.34.63.67,1.35.93,2.29.3-.38-.51-.65-.98-1.02-1.36-3.2-3.24-6.01-6.84-9.35-9.95-.85-.8-1.7-1.5-.42-2.81,3.02-3.06,5.92-6.26,8.84-9.42.46-.49,1.63-.93,1.03-1.64-.61-.73-1.51.05-2.18.54-.24.18-.51.34-.71.57-1.31,1.43-2.59,2.89-3.91,4.31-1.8,1.93-3.64,3.84-5.53,5.82-.5-.77-.29-1.39-.3-1.96-.03-2.74-.03-5.49,0-8.23,0-.83-.34-1.31-1.13-1.35-.88-.03-.66.72-.66,1.21Z"/>
    <path class="cls-2" d="M996.74,284.09c-.59,0-1.1.26-1.47.77v-.68h-.47v5.05h.47v-1.99c.4.49.91.72,1.48.72,1.09,0,1.9-.9,1.9-1.95s-.84-1.94-1.92-1.94ZM996.71,287.54c-.76,0-1.47-.57-1.47-1.49,0-.86.64-1.51,1.47-1.51s1.46.7,1.46,1.49-.64,1.51-1.46,1.51Z"/>
    <path class="cls-2" d="M996.42,294.35c-1.17,0-2.03.95-2.03,2.06s.86,2.04,2.03,2.04,2.03-.93,2.03-2.04-.87-2.06-2.03-2.06ZM996.42,297.97c-.88,0-1.52-.7-1.52-1.55s.68-1.59,1.52-1.59,1.52.72,1.52,1.59-.65,1.55-1.52,1.55Z"/>
    <polygon class="cls-2" points="985.95 293 985.45 293 985.45 294.45 984.76 294.45 984.76 294.89 985.45 294.89 985.45 298.35 985.95 298.35 985.95 294.89 986.75 294.89 986.75 294.45 985.95 294.45 985.95 293"/>
    <path class="cls-2" d="M975.68,295.16c-.39-.54-.92-.81-1.56-.81-1.13,0-2.01.93-2.01,2.04s.86,2.06,2,2.06c.61,0,1.15-.25,1.57-.76v.67h.49v-3.9h-.49v.71ZM974.16,297.99c-.87,0-1.53-.74-1.53-1.59s.65-1.57,1.54-1.57,1.55.68,1.55,1.59c0,.97-.76,1.57-1.56,1.57Z"/>
    <path class="cls-2" d="M969.43,283.24c.72,0,1.35.29,1.78.86l.4-.3c-.5-.69-1.27-1.05-2.19-1.05-1.55,0-2.7,1.12-2.7,2.6s1.02,2.65,2.7,2.65c.91,0,1.67-.34,2.19-.99l-.4-.3c-.47.54-1.06.83-1.76.83-1.26,0-2.21-.91-2.21-2.15s1-2.15,2.18-2.15Z"/>
    <path class="cls-2" d="M974.29,284.09c-1.11,0-1.93.9-1.93,1.96s.82,1.94,1.93,1.94,1.93-.89,1.93-1.94-.82-1.96-1.93-1.96ZM974.29,287.52c-.84,0-1.44-.66-1.44-1.47s.65-1.51,1.44-1.51,1.44.68,1.44,1.51-.61,1.47-1.44,1.47Z"/>
    <polygon class="cls-2" points="982.25 287.89 982.25 284.6 983.01 284.6 983.01 284.18 982.25 284.18 982.25 282.8 981.78 282.8 981.78 284.18 981.12 284.18 981.12 284.6 981.78 284.6 981.78 287.89 982.25 287.89"/>
    <path class="cls-2" d="M974.26,268.84c5.2.15,4.21-1.06,6.29,4.25.09.23.12.47.22.7.22.53.53,1.06,1.21.78.68-.29.26-.81.1-1.24-1.86-4.99-3.71-9.99-5.58-14.97-.18-.47-.2-1.22-.93-1.13-.55.06-.61.69-.76,1.14-.99,2.86-2.14,5.66-3.15,8.51-.79,2.23-1.89,4.34-2.51,6.63-.13.49-.37.96.33,1.1.69.07.89-.4,1.07-.86.4-1.02.83-2.03,1.16-3.06.41-1.28,1.24-1.88,2.56-1.84ZM975.63,259.82c.95,2.43,2.09,4.61,2.45,7.06.21.23.66.74.2.74-1.78-.01-3.62.57-5.36-.29.88-2.44,1.76-4.88,2.7-7.52Z"/>
    <path class="cls-2" d="M980.34,287.89v-2.08c0-1.16-.56-1.72-1.37-1.72-.54,0-1,.26-1.39.76v-.66h-.47v3.7h.47v-1.55c0-.59.04-.95.32-1.31.25-.33.58-.5.98-.5.72,0,.99.48.99,1.35v2.01h.47Z"/>
    <rect class="cls-2" x="977.23" y="292.94" width=".5" height="5.4"/>
    <path class="cls-2" d="M970.23,295.47c.46-.25.68-.65.68-1.11,0-.74-.51-1.28-1.61-1.28h-1.12v5.27h1.45c1.11,0,1.72-.73,1.72-1.51,0-.66-.37-1.12-1.11-1.37ZM968.7,293.59h.69c.61,0,.96.3.96.77,0,.29-.14.57-.37.73-.22.15-.53.2-.92.2h-.35v-1.7ZM969.97,297.78c-.18.01-.4.05-.63.05h-.64v-2.03h.36c.49,0,.9.03,1.21.2.32.18.51.5.51.84,0,.53-.46.91-.81.94Z"/>
    <path class="cls-2" d="M982.06,294.35c-1.22,0-2,1-2,2.06s.74,2.03,2.03,2.03c.85,0,1.46-.39,1.86-1.17l-.42-.22c-.29.47-.68.93-1.49.93s-1.45-.65-1.47-1.55h3.51c-.01-1.29-.91-2.09-2.02-2.09ZM982.06,294.83c.68,0,1.26.36,1.46,1.17h-2.91c.23-.79.75-1.17,1.45-1.17Z"/>
    <rect class="cls-2" x="978.69" y="292.94" width=".5" height="5.4"/>
    <path class="cls-2" d="M968.55,247.95c.62-2.02.04-3.95-.44-5.89-.66-.89-1.5-1.5-2.5-2.03-2.62-1.37-5.34-2.58-7.48-4.75-1.29-1.31-.9-2.88-.42-4.08.49-1.21,1.4-2.55,3.13-2.7,1.9-.16,3.45.38,4.67,1.86.38.46.82,1.02,1.52.49.66-.51.2-1.09.02-1.65-.23-.71-.9-.99-1.4-1.37-2.87-2.22-7.01-1.69-8.98,1.34-1.92,2.95-2.15,6.25,1.27,8.63,2.08,1.44,4.32,2.66,6.57,3.84,2.31,1.21,3.32,4.14,1.94,6.34-1.16,1.86-2.64,3.33-5.06,3.3-2.47-.02-4.07-1.41-5.21-3.42-.32-.56-.42-1.21-1.24-.88-.82.33-.76,1.06-.54,1.71.71,2.11,3.64,4.12,5.84,4.39,3.75.46,7.29-2.06,8.31-5.14Z"/>
    <path class="cls-2" d="M1026.68,273.23c-1.67-.18-3.87.77-4.87-.41-1.02-1.21-.22-3.38-.31-5.13,0-.12.01-.24,0-.36-.14-1.09.29-1.55,1.43-1.49,1.33.08,2.67.02,4.01.01.53,0,1.01-.18,1.03-.79.03-.76-.6-.62-1.05-.63-1.15-.02-2.32-.12-3.46.02-1.68.21-2.14-.5-1.97-2.06.12-1.14.04-2.31.04-3.46,1.91-.81,3.9-.21,5.84-.35.49-.09.77-.35.68-.88-.1-.57-.54-.58-.97-.58-1.82,0-3.64.06-5.46-.02-1.21-.06-1.56.39-1.55,1.57.06,4.43.03,8.87.03,13.3q0,2.68,2.55,2.72c1.58,0,3.16,0,4.73,0,.49-.1.78-.37.66-.89-.18-.78-.84-.52-1.34-.57Z"/>
    <path class="cls-2" d="M1015.33,272.07c-2.35,1.49-4.83,1.99-7.34.57-2.47-1.4-3.89-3.58-4.07-6.59.2-2.91,1.57-5.27,4.1-6.79,2.38-1.43,4.77-.99,6.98.6.49.35,1.09.9,1.56.23.46-.66-.06-1.25-.63-1.68-2.59-1.96-7.51-1.94-9.85.18-4.56,4.12-4.67,10.41-.32,14.38,2.77,2.53,7.92,2.27,10.26.35.5-.41.97-.98.6-1.56-.51-.79-.89.08-1.28.33Z"/>
    <polygon class="cls-2" points="1014.45 287.04 1013.17 284.18 1012.67 284.18 1014.19 287.61 1013.48 289.24 1013.98 289.24 1016.19 284.18 1015.68 284.18 1014.45 287.04"/>
    <path class="cls-2" d="M1013.3,294.35c-.57,0-1.06.27-1.46.8v-.7h-.5v3.9h.5v-1.64c0-.62.04-1,.34-1.38.26-.34.61-.53,1.03-.53.76,0,1.04.51,1.04,1.42v2.12h.5v-2.19c0-1.23-.59-1.81-1.45-1.81Z"/>
    <path class="cls-2" d="M1023.7,252.67s0,0,0,0c0,0,0,0,0,0,0,0,.01,0,.01,0Z"/>
    <path class="cls-2" d="M992.97,158.21c.7.82,1.24.77,1.77-.18.98-1.75,1.98-3.48,2.98-5.22.24-.42.2-.77-.07-1.18-.77-1.21-1.54-1.81-2.77-.45-1.27,1.41-2.97,2.48-3.41,3.96-.18,1.78.84,2.3,1.5,3.07Z"/>
    <path class="cls-2" d="M999.7,295.01v-.57h-.53v3.9h.53v-1.48c0-.53.01-.93.08-1.18.15-.54.48-.85.84-.85.11,0,.21.04.26.07l.26-.43c-.1-.06-.22-.13-.45-.13-.4,0-.71.24-1.01.67Z"/>
    <polygon class="cls-2" points="1022.6 253.04 1022.6 253.04 1022.59 253.05 1022.6 253.04"/>
    <path class="cls-2" d="M1028.63,165.25c-2.62.04-5.26-.23-7.85.05-8.24.91-16.41,2.32-24.58,3.71-.92.16-1.47.14-1.94-.68-.73-1.29-1.71-1.14-2.74-.38-.58.43-1.15.89-1.73,1.33-.26.2-.57.72-.88.35-1.02-1.27-2.39-.74-3.58-.69-1.69.06-1.82-.77-1.52-2.03.11-.47.32-.92.45-1.39.49-1.87,1.25-3.72.85-5.71-.09-.44-.19-1.05-.79-1.09-.53-.04-.67.49-.81.86-.53,1.36-.99,2.74-1.5,4.1-1.11,2.92-1.32,5.69,1.2,8.05.99.93.63,1.52-.34,2.24-1.95,1.43-3.93,2.85-5.61,4.61-1.11,1.16-1.01,2.54-.53,3.93.44,1.27,1.42,1.54,2.63,1.31v.07h.02c0,.13,0,.25.01.38-2.42,2.6-1.53,4.71,3.08,7.16-.48.34-.9.67-1.35.95-9.57,6.01-18.11,13.21-25.31,21.96-1.3,1.58-2.69,3.14-3.31,5.17-.43,1.42.5,4.01,1.78,4.43,1.56.5,2.48-.59,3.44-1.7,1.62-1.88,3.27-3.77,5.18-5.34,5.76-4.74,11.87-9,18.3-12.81,7.81-4.63,15.96-8.41,24.76-10.76,5.05-1.35,10.2-2.03,15.33-2.85.4-.06.85.05,1.11-.43.85-1.52-.28-3.82-2.01-3.91-2.92-.15-5.83-.05-8.71.49-8.22,1.56-15.96,4.5-23.45,8.22-4.78,2.37-9.24,5.28-13.95,7.78-.25.14-.49.27-.74.41,0,0,0,0,0,0-.02-.07.26-.29.61-.56,2.26-2.48,5.13-4.17,7.87-5.99,4.85-3.22,9.88-6.16,15.15-8.67.75-.36,1.51-.66.96-1.71-.53-1.02-.19-2.81-2.17-2.57-1.43.17-2.84.43-4.47.69.96-2.58,2.32-4.64,4.63-5.94,2.54-1.43,5.16-2.7,7.9-3.71,7.98-2.92,16.32-4,24.69-4.97,1.35-.16,1.92-.67,1.8-2.09-.11-1.29-.25-2.3-1.89-2.27Z"/>
    <path class="cls-2" d="M1027.79,227.07c-1.27-.05-1.12.79-1.12,1.59,0,5.36,0,10.72,0,16.08,0,2.3-.57,4.38-2.7,5.58-2.54,1.43-5.1,1.31-7.58-.27-2.34-1.49-2.48-3.93-2.53-6.29-.1-5.12-.03-10.23-.04-15.35,0-.65.16-1.5-.8-1.56-1.11-.07-.98.85-.98,1.56,0,5.48-.09,10.97.04,16.45.09,3.7,1.69,6.55,5.4,7.84.16.11.32.23.48.34.2,0,.41.01.61.02,1.34,0,2.68-.02,4.02-.02.28-.39.69-.38,1.1-.37.16-.3.44-.35.74-.39,2.83-1.64,4.07-4.15,4.06-7.36-.01-5.42,0-10.84-.01-16.26,0-.58.71-1.53-.68-1.58Z"/>
    <path class="cls-2" d="M1012.16,284.55c.1,0,.2.04.25.07l.25-.4c-.1-.06-.21-.13-.43-.13-.38,0-.68.23-.95.63v-.54h-.5v3.7h.5v-1.41c0-.5.01-.89.08-1.12.14-.51.45-.81.8-.81Z"/>
    <path class="cls-2" d="M1003.23,286.05c0-1.06-.82-1.96-1.93-1.96s-1.93.9-1.93,1.96.82,1.94,1.93,1.94,1.93-.89,1.93-1.94ZM1001.3,287.52c-.84,0-1.44-.66-1.44-1.47s.65-1.51,1.44-1.51,1.44.68,1.44,1.51-.61,1.47-1.44,1.47Z"/>
    <path class="cls-2" d="M1004.42,284.72v-.54h-.5v3.7h.5v-1.41c0-.5.01-.89.08-1.12.14-.51.45-.81.8-.81.1,0,.2.04.25.07l.25-.4c-.1-.06-.21-.13-.43-.13-.38,0-.68.23-.96.63Z"/>
    <path class="cls-2" d="M1009.9,287.89v-3.7h-.47v.68c-.37-.52-.88-.77-1.48-.77-1.07,0-1.91.89-1.91,1.94s.82,1.95,1.9,1.95c.58,0,1.09-.24,1.49-.72v.63h.47ZM1007.99,287.54c-.83,0-1.46-.7-1.46-1.51s.61-1.49,1.46-1.49,1.47.65,1.47,1.51c0,.92-.72,1.49-1.48,1.49Z"/>
    <path class="cls-2" d="M974.69,226.87c-.88-.03-.66.72-.66,1.21-.01,7.74,0,15.48,0,23.22,0,.66-.12,1.43.94,1.38,1.07-.05.84-.86.84-1.49.02-2.8,0-5.61.02-8.41,0-.64-.22-1.35.43-1.97.79.53,1.46,1.17,2.11,1.89,2.87,3.14,5.79,6.24,8.7,9.34.63.67,1.35.93,2.29.3-.38-.51-.65-.98-1.02-1.36-3.2-3.24-6.01-6.84-9.35-9.95-.85-.8-1.7-1.5-.42-2.81,3.02-3.06,5.92-6.26,8.84-9.42.46-.49,1.63-.93,1.03-1.64-.61-.73-1.51.05-2.18.54-.24.18-.51.34-.71.57-1.31,1.43-2.59,2.89-3.91,4.31-1.8,1.93-3.64,3.84-5.53,5.82-.5-.77-.29-1.39-.3-1.96-.03-2.74-.03-5.49,0-8.23,0-.83-.34-1.31-1.13-1.35Z"/>
    <path class="cls-2" d="M1003.37,294.35c-1.22,0-2,1-2,2.06s.74,2.03,2.03,2.03c.85,0,1.46-.39,1.86-1.17l-.42-.22c-.29.47-.68.93-1.49.93s-1.45-.65-1.47-1.55h3.51c-.01-1.29-.91-2.09-2.02-2.09ZM1003.38,294.83c.68,0,1.26.36,1.46,1.17h-2.91c.23-.79.75-1.17,1.45-1.17Z"/>
    <path class="cls-2" d="M1009.72,295.16c-.39-.54-.92-.81-1.56-.81-1.13,0-2.01.93-2.01,2.04s.86,2.06,2,2.06c.61,0,1.14-.25,1.57-.76v.67h.49v-3.9h-.49v.71ZM1008.2,297.99c-.87,0-1.53-.74-1.53-1.59s.65-1.57,1.54-1.57,1.55.68,1.55,1.59c0,.97-.76,1.57-1.56,1.57Z"/>
  </g>
</svg>